<?xml version="1.0" encoding="UTF-8"?>
<svg width="20px" height="20px" viewBox="0 0 20 20" version="1.1" xmlns="http://www.w3.org/2000/svg" xmlns:xlink="http://www.w3.org/1999/xlink">
    <!-- Generator: Sketch 64 (93537) - https://sketch.com -->
    <title>Shape</title>
    <desc>Created with Sketch.</desc>
    <g id="Fournisseur" stroke="none" stroke-width="1" fill="none" fill-rule="evenodd">
        <g id="Remettant---Desktop---Verifier-1.a" transform="translate(-138.000000, -1146.000000)" fill="#FFFFFF" fill-rule="nonzero">
            <g id="Group-6" transform="translate(122.000000, 1130.000000)">
                <path d="M26,16 C20.4935065,16 16,20.4935065 16,26 C16,31.5064935 20.4935065,36 26,36 C31.5064935,36 36,31.5064935 36,26 C36,20.4935065 31.5064935,16 26,16 Z M30.6753247,23.9220779 L25.2987013,29.038961 C25.1688312,29.1688312 25.012987,29.2207792 24.8571429,29.2207792 C24.6753247,29.2207792 24.5194805,29.1688312 24.3896104,29.038961 L21.3246753,25.9480519 C21.0649351,25.7142857 21.0649351,25.2987013 21.3246753,25.038961 C21.5584416,24.7792208 21.974026,24.7792208 22.2337662,25.038961 L24.8571429,27.6883117 L29.7922078,22.987013 C30.0519481,22.7532468 30.4415584,22.7532468 30.7012987,23.012987 C30.9350649,23.2727273 30.9350649,23.6623377 30.6753247,23.9220779 Z" id="Shape"></path>
            </g>
        </g>
    </g>
</svg>
