<?xml version="1.0" encoding="UTF-8"?>
<svg width="20px" height="20px" viewBox="0 0 20 20" version="1.1" xmlns="http://www.w3.org/2000/svg" xmlns:xlink="http://www.w3.org/1999/xlink">
    <!-- Generator: Sketch 64 (93537) - https://sketch.com -->
    <title>noun_chevron left_3164975</title>
    <desc>Created with Sketch.</desc>
    <g id="Fournisseur" stroke="none" stroke-width="1" fill="none" fill-rule="evenodd">
        <g id="Remettant---Desktop---1" transform="translate(-838.000000, -714.000000)" fill="#FFFFFF" fill-rule="nonzero">
            <g id="Group-6" transform="translate(634.000000, 698.000000)">
                <g id="noun_chevron-left_3164975" transform="translate(204.000000, 16.000000)">
                    <path d="M10,0 C4.4771525,0 0,4.4771525 0,10 C0,15.5228475 4.4771525,20 10,20 C15.5228475,20 20,15.5228475 20,10 C20,7.3478351 18.9464316,4.80429597 17.0710678,2.92893219 C15.195704,1.0535684 12.6521649,0 10,0 Z M11.69,13.29 C11.8793127,13.4777666 11.9857983,13.7333625 11.9857983,14 C11.9857983,14.2666375 11.8793127,14.5222334 11.69,14.71 C11.5062113,14.8923408 11.2588682,14.9962966 11,15.0000167 C10.734197,15.0015368 10.4787188,14.8971865 10.29,14.71 L6.29,10.71 C6.10068735,10.5222334 5.99420168,10.2666375 5.99420168,10 C5.99420168,9.73336246 6.10068735,9.4777666 6.29,9.29 L10.29,5.29 C10.5436586,5.03634143 10.913374,4.93727648 11.259878,5.03012196 C11.6063821,5.12296744 11.8770326,5.39361791 11.969878,5.74012196 C12.0627235,6.08662601 11.9636586,6.45634143 11.71,6.71 L8.42,10 L11.69,13.29 Z" id="Shape" transform="translate(10.000000, 10.000000) scale(-1, 1) translate(-10.000000, -10.000000) "></path>
                </g>
            </g>
        </g>
    </g>
</svg>