<?xml version="1.0" encoding="UTF-8"?>
<svg width="20px" height="20px" viewBox="0 0 20 20" version="1.1" xmlns="http://www.w3.org/2000/svg" xmlns:xlink="http://www.w3.org/1999/xlink">
    <!-- Generator: Sketch 64 (93537) - https://sketch.com -->
    <title>Shape</title>
    <desc>Created with Sketch.</desc>
    <g id="Fournisseur" stroke="none" stroke-width="1" fill="none" fill-rule="evenodd">
        <g id="Remettant---Desktop---Verifier-2" transform="translate(-602.000000, -327.000000)" fill="#000191" fill-rule="nonzero">
            <g id="Group-8" transform="translate(582.000000, 307.000000)">
                <path d="M22.9287599,22.9287599 C19.0237467,26.8337731 19.0237467,33.1662269 22.9287599,37.0712401 C26.8337731,40.9762533 33.1662269,40.9762533 37.0712401,37.0712401 C40.9762533,33.1662269 40.9762533,26.8337731 37.0712401,22.9287599 C33.1662269,19.0237467 26.8337731,19.0237467 22.9287599,22.9287599 Z M30.4010554,24.1952507 C31.2453826,24.1952507 31.9208443,24.8918206 31.9208443,25.7361478 C31.9208443,26.5804749 31.2242744,27.2770449 30.4010554,27.2770449 C29.5567282,27.2770449 28.8601583,26.5804749 28.8601583,25.7150396 C28.8601583,24.8707124 29.5567282,24.1952507 30.4010554,24.1952507 Z M32.5751979,34.5171504 C32.5329815,34.6437995 32.4485488,34.7915567 32.3641161,34.8759894 C31.8153034,35.4459103 31.1398417,35.7836412 30.3377309,35.7836412 C29.9577836,35.7836412 29.5989446,35.7836412 29.2189974,35.7203166 C28.6068602,35.6358839 27.8258575,34.8759894 27.9313984,34.0738786 C28.0158311,33.525066 28.1002639,32.9762533 28.1846966,32.4274406 C28.353562,31.4775726 28.5224274,30.5065963 28.6912929,29.5567282 C28.6912929,29.4934037 28.7124011,29.4300792 28.7124011,29.3667546 C28.7124011,28.9656992 28.585752,28.817942 28.1846966,28.7757256 C28.0158311,28.7546174 27.8469657,28.7335092 27.6781003,28.6912929 C27.4881266,28.6279683 27.3825858,28.4591029 27.4036939,28.3113456 C27.4248021,28.1424802 27.530343,28.0369393 27.7414248,27.994723 C27.8469657,27.9736148 27.9736148,27.9736148 28.1002639,27.9736148 C28.5646438,27.9736148 29.0290237,27.9736148 29.5145119,27.9736148 C30.0211082,27.9736148 30.5065963,27.9736148 31.0131926,27.9736148 C31.3720317,27.9736148 31.5831135,28.1424802 31.5831135,28.5013193 C31.5831135,28.7968338 31.5408971,29.0923483 31.4775726,29.3878628 C31.2875989,30.4854881 31.0765172,31.5620053 30.8865435,32.6596306 C30.823219,33.0184697 30.7387863,33.3773087 30.6965699,33.7361478 C30.6754617,33.9050132 30.6965699,34.0949868 30.7387863,34.2638522 C30.8021108,34.4960422 30.9709763,34.6226913 31.2031662,34.6015831 C31.3931398,34.5804749 31.5831135,34.5171504 31.7730871,34.4327177 C31.9208443,34.3693931 32.0474934,34.2638522 32.1952507,34.2216359 C32.4485488,34.1372032 32.6385224,34.2849604 32.5751979,34.5171504 Z" id="Shape"></path>
            </g>
        </g>
    </g>
</svg>