<?xml version="1.0" encoding="UTF-8"?>
<svg width="15px" height="14px" viewBox="0 0 15 14" version="1.1" xmlns="http://www.w3.org/2000/svg" xmlns:xlink="http://www.w3.org/1999/xlink">
    <!-- Generator: Sketch 64 (93537) - https://sketch.com -->
    <title>Group</title>
    <desc>Created with Sketch.</desc>
    <g id="Fournisseur" stroke="none" stroke-width="1" fill="none" fill-rule="evenodd">
        <g id="Remettant---Desktop---Verifier-1.a" transform="translate(-887.000000, -45.000000)" fill="#495057" fill-rule="nonzero">
            <g id="Group-8" transform="translate(778.000000, 40.000000)">
                <g id="Group" transform="translate(109.000000, 5.000000)">
                    <path d="M9.484375,3.6875 L11.96875,6.171875 L4.515625,6.171875 C4.03125,6.171875 3.65625,6.5625 3.65625,7.03125 C3.65625,7.515625 4.046875,7.890625 4.515625,7.890625 L11.984375,7.890625 L9.484375,10.375 C9.3125,10.546875 9.234375,10.765625 9.234375,10.984375 C9.234375,11.203125 9.3125,11.421875 9.484375,11.59375 C9.828125,11.9375 10.375,11.9375 10.703125,11.59375 L14.65625,7.640625 C15,7.296875 15,6.75 14.65625,6.421875 L10.703125,2.46875 C10.359375,2.125 9.8125,2.125 9.484375,2.46875 C9.15625,2.796875 9.15625,3.34375 9.484375,3.6875 Z" id="Path"></path>
                    <path d="M5.28125,13.09375 C5.28125,12.609375 4.890625,12.234375 4.421875,12.234375 L1.796875,12.234375 L1.796875,1.84375 L4.421875,1.84375 C4.90625,1.84375 5.28125,1.453125 5.28125,0.984375 C5.28125,0.515625 4.890625,0.125 4.421875,0.125 L0.9375,0.125 C0.453125,0.125 0.078125,0.515625 0.078125,0.984375 L0.078125,13.09375 C0.078125,13.578125 0.46875,13.953125 0.9375,13.953125 L4.421875,13.953125 C4.90625,13.953125 5.28125,13.5625 5.28125,13.09375 Z" id="Path"></path>
                </g>
            </g>
        </g>
    </g>
</svg>