<?xml version="1.0" encoding="UTF-8"?>
<svg width="20px" height="20px" viewBox="0 0 20 20" version="1.1" xmlns="http://www.w3.org/2000/svg" xmlns:xlink="http://www.w3.org/1999/xlink">
    <!-- Generator: Sketch 64 (93537) - https://sketch.com -->
    <title>Shape</title>
    <desc>Created with Sketch.</desc>
    <g id="Fournisseur" stroke="none" stroke-width="1" fill="none" fill-rule="evenodd">
        <g id="Remettant---Desktop---Verifier-1.a" transform="translate(-149.000000, -432.000000)" fill="#FFFFFF" fill-rule="nonzero">
            <g id="Group-6" transform="translate(122.000000, 418.000000)">
                <path d="M27.6381147,14.000154 C27.4723802,14.0004942 27.3135851,14.0667333 27.1967367,14.1842685 C27.0798884,14.3018036 27.0145811,14.4609843 27.0152078,14.626718 L27.0152078,21.4506554 C27.0152078,21.7956866 27.2949154,22.0753896 27.6399465,22.0753896 C27.9849777,22.0753896 28.2646807,21.7956866 28.2646807,21.4506554 L28.2646807,15.2484061 L34.4657126,15.2484061 C34.6919894,15.2534222 34.9032579,15.1355737 35.0178691,14.9404055 C35.1324803,14.7452373 35.1324803,14.5033228 35.0178691,14.3081546 C34.9032579,14.1129864 34.6919894,13.9951379 34.4657126,14.000154 L27.6381147,14.000154 Z M39.5379508,14.000154 C39.311674,13.9951379 39.1004056,14.1129864 38.9857943,14.3081546 C38.8711831,14.5033228 38.8711831,14.7452373 38.9857943,14.9404055 C39.1004056,15.1355737 39.311674,15.2534222 39.5379508,15.2484061 L45.7389827,15.2484061 L45.7389827,18.9529315 C45.7389827,19.1761276 45.8580564,19.3823692 46.0513498,19.4939673 C46.2446433,19.6055653 46.4827906,19.6055653 46.6760841,19.4939673 C46.8693775,19.3823692 46.9884557,19.1761276 46.9884557,18.9529315 L46.9884557,14.626718 C46.9890856,14.4603488 46.9232763,14.3006106 46.8056346,14.1829692 C46.6879928,14.0653278 46.5282544,13.999519 46.3618853,14.000154 L39.5379508,14.000154 Z M27.6381147,23.3620393 C27.411838,23.3570233 27.2005696,23.4748718 27.0859584,23.67004 C26.9713472,23.8652081 26.9713472,24.1071226 27.0859584,24.3022907 C27.2005696,24.4974589 27.411838,24.6153074 27.6381147,24.6102914 L46.3618853,24.6102914 C46.588162,24.6153074 46.7994304,24.4974589 46.9140416,24.3022907 C47.0286528,24.1071226 47.0286528,23.8652081 46.9140416,23.67004 C46.7994304,23.4748718 46.588162,23.3570233 46.3618853,23.3620393 L27.6381147,23.3620393 Z M27.6332412,25.887753 C27.6116561,25.8879365 27.5900927,25.8891963 27.568638,25.8915706 C27.2490085,25.9279886 27.0094079,26.2013652 27.0152133,26.5230104 L27.0152133,33.3506042 C27.0165874,33.693856 27.2948619,33.9715881 27.6381157,33.9722924 L34.4657126,33.9722924 C34.6919894,33.9773084 34.9032577,33.8594598 35.0178689,33.6642917 C35.1324801,33.4691235 35.1324801,33.2272091 35.0178689,33.0320409 C34.9032577,32.8368727 34.6919894,32.7190242 34.4657126,32.7240402 L28.2646807,32.7240402 L28.2646807,26.5230104 C28.2676731,26.3542982 28.202232,26.1915621 28.0832717,26.0718907 C27.9643115,25.9522194 27.8019683,25.8858095 27.6332412,25.887753 L27.6332412,25.887753 Z M46.3570118,25.887753 C46.3354266,25.8879365 46.3138632,25.8891963 46.2924086,25.8915706 C45.972779,25.9279885 45.7331782,26.2013652 45.7389837,26.5230104 L45.7389837,32.7240402 L39.5379508,32.7240402 C39.3116741,32.7190242 39.1004057,32.8368727 38.9857945,33.0320409 C38.8711833,33.2272091 38.8711833,33.4691235 38.9857945,33.6642917 C39.1004057,33.8594598 39.3116741,33.9773084 39.5379508,33.9722924 L46.3618853,33.9722924 C46.7065683,33.9736082 46.9870732,33.695287 46.9884512,33.3506042 L46.9884512,26.5228948 C46.9914119,26.3542025 46.9259568,26.1914965 46.8070001,26.0718505 C46.6880434,25.9522045 46.5257184,25.8858103 46.3570118,25.887753 L46.3570118,25.887753 Z" id="Shape"></path>
            </g>
        </g>
    </g>
</svg>